<svg xmlns="http://www.w3.org/2000/svg" viewBox="0 0 48 16" role="img" aria-label="American Express">
  <rect width="48" height="16" rx="2" fill="#006FCF"/>
  <path fill="#fff" d="M6.2 5.2h1.5l.9 2.2.9-2.2h1.5v5.6H10l-.1-3.3-.9 2.2H8.1l-.9-2.2-.1 3.3H6.2V5.2zm7.2 0h2.6c1.2 0 2 .7 2 1.8 0 .8-.4 1.4-1.1 1.6l1.3 2.2h-1.7l-1.1-2h-.8v2h-1.2V5.2zm1.2 2.6h1.1c.5 0 .8-.2.8-.7 0-.5-.3-.7-.8-.7h-1.1v1.4zm5.1-2.6h3.5v1h-2.3v.9h2.1v1h-2.1v.9h2.3v1h-3.5V5.2zm6.1 0h2.1l1.4 3.5V5.2h1.2v5.6h-2l-1.4-3.5v3.5h-1.2V5.2zm6.5 0h2.6c1.2 0 2 .7 2 1.8 0 .8-.4 1.4-1.1 1.6l1.3 2.2h-1.7l-1.1-2h-.8v2h-1.2V5.2zm1.2 2.6h1.1c.5 0 .8-.2.8-.7 0-.5-.3-.7-.8-.7h-1.1v1.4zm5.5-2.6h1.5l1.5 3.8 1.5-3.8h1.5l-2.2 5.6h-1.5l-2.3-5.6z"/>
</svg>
