<svg xmlns="http://www.w3.org/2000/svg" viewBox="0 0 124 33" role="img" aria-label="PayPal">
  <path fill="#253B80" d="M46.211 6.749h-6.839a.95.95 0 0 0-.939.798l-2.734 17.351a.57.57 0 0 0 .561.658h3.455c.653 0 1.207-.484 1.305-1.127l.012-.067.648-4.106.008-.045a1.31 1.31 0 0 1 1.305-1.127h2.168c4.522 0 7.131-2.185 7.814-6.5.307-1.89.012-3.375-.877-4.412-.979-1.141-2.719-1.734-5.085-1.734zm.789 6.405c-.373 2.454-2.259 2.454-4.089 2.454h-1.039l.724-4.593a.57.57 0 0 1 .561-.481h.476c1.248 0 2.427 0 3.033.715.364.422.474 1.048.335 1.905z"/>
  <path fill="#253B80" d="M66.654 6.749h-6.84a.95.95 0 0 0-.938.798l-2.734 17.351a.57.57 0 0 0 .56.658h3.29a1.31 1.31 0 0 0 1.287-1.078l.781-4.946a1.31 1.31 0 0 1 1.287-1.078h2.168c4.522 0 7.131-2.185 7.814-6.5.307-1.89.012-3.375-.877-4.412-.979-1.141-2.719-1.734-5.085-1.734zm.789 6.405c-.373 2.454-2.259 2.454-4.089 2.454h-1.039l.724-4.593a.57.57 0 0 1 .561-.481h.476c1.248 0 2.427 0 3.033.715.364.422.474 1.048.335 1.905z"/>
  <path fill="#179BD7" d="M94.992 6.749h-6.84a.95.95 0 0 0-.938.798l-2.734 17.351a.57.57 0 0 0 .56.658h3.455c.653 0 1.207-.484 1.305-1.127l.012-.067.648-4.106.008-.045a1.31 1.31 0 0 1 1.305-1.127h2.168c4.522 0 7.131-2.185 7.814-6.5.307-1.89.012-3.375-.877-4.412-.979-1.141-2.719-1.734-5.085-1.734zm.789 6.405c-.373 2.454-2.259 2.454-4.089 2.454h-1.039l.724-4.593a.57.57 0 0 1 .561-.481h.476c1.248 0 2.427 0 3.033.715.364.422.474 1.048.335 1.905z"/>
  <path fill="#179BD7" d="M26.675 6.749h-6.84a.95.95 0 0 0-.938.798L16.163 24.9a.57.57 0 0 0 .56.658h3.29a1.31 1.31 0 0 0 1.287-1.078l.781-4.946a1.31 1.31 0 0 1 1.287-1.078h2.168c4.522 0 7.131-2.185 7.814-6.5.307-1.89.012-3.375-.877-4.412-.979-1.141-2.719-1.734-5.085-1.734zm.789 6.405c-.373 2.454-2.259 2.454-4.089 2.454h-1.039l.724-4.593a.57.57 0 0 1 .561-.481h.476c1.248 0 2.427 0 3.033.715.364.422.474 1.048.335 1.905z"/>
</svg>
