<svg xmlns="http://www.w3.org/2000/svg" viewBox="0 0 48 16" role="img" aria-label="Visa">
  <path fill="#1A1F71" d="M19.5 15.5h-3.2L17.6 5.2h3.2l-1.3 10.3zm11.8 0h-3l-1.9-10.3h2.8l.4 2.5.6 3.8c.1-.9.3-1.8.5-2.5l1.3-3.8h2.6l-3.3 10.3zm9.2-7.1c0-2.4-3.3-2.5-3.3-3.6 0-.3.3-.7.9-.8.3-.1 1.1-.1 2 .4l.4-2.4c-.5-.2-1.2-.4-2.1-.4-2.2 0-3.8 1.2-3.8 2.9 0 1.3 1.1 2 2 2.4.9.5 1.2.8 1.2 1.2 0 .7-.7 1-1.4 1-1.2 0-1.8-.3-2.4-.6l-.4 2.5c.6.3 1.6.5 2.7.5 2.4 0 4-1.2 4-3.1zm8.5 7.1h2.6l-2.5-10.3h-2.4c-.7 0-1.3.4-1.6 1l-4.5 9.3h3.2l.6-1.7h3.9l.4 1.7zm-3.4-4.1 1.6-4.4.9 4.4h-2.5zM15.1 5.2 12.5 12l-.3-1.6c-.6-2-2.5-3.3-4.6-3.3H2.5l-.1.4c1.9.4 3.3 1.5 3.9 3.1L7.8 15.5h3.2l4.1-10.3z"/>
</svg>
